<?xml version="1.0" encoding="UTF-8" standalone="no"?>
<!-- Created with Inkscape (http://www.inkscape.org/) -->

<svg
   width="2.7154078mm"
   height="5.66364mm"
   viewBox="0 0 2.7154079 5.6636401"
   version="1.1"
   id="svg3354"
   inkscape:version="1.2 (dc2aedaf03, 2022-05-15)"
   sodipodi:docname="test-smart-brush-icon-4.svg"
   xml:space="preserve"
   xmlns:inkscape="http://www.inkscape.org/namespaces/inkscape"
   xmlns:sodipodi="http://sodipodi.sourceforge.net/DTD/sodipodi-0.dtd"
   xmlns="http://www.w3.org/2000/svg"
   xmlns:svg="http://www.w3.org/2000/svg"><sodipodi:namedview
     id="namedview3356"
     pagecolor="#505050"
     bordercolor="#eeeeee"
     borderopacity="1"
     inkscape:showpageshadow="0"
     inkscape:pageopacity="0"
     inkscape:pagecheckerboard="0"
     inkscape:deskcolor="#505050"
     inkscape:document-units="mm"
     showgrid="false"
     inkscape:zoom="16"
     inkscape:cx="-4.53125"
     inkscape:cy="7.25"
     inkscape:window-width="1920"
     inkscape:window-height="1027"
     inkscape:window-x="-8"
     inkscape:window-y="-8"
     inkscape:window-maximized="1"
     inkscape:current-layer="layer1" /><defs
     id="defs3351" /><g
     inkscape:label="Слой 1"
     inkscape:groupmode="layer"
     id="layer1"
     transform="translate(-103.78831,-147.67128)"><g
       id="g54107"
       transform="rotate(-15,105.09721,150.38639)"><path
         style="fill:#ffffff;fill-opacity:1;stroke:#000000;stroke-width:0.22;stroke-linecap:butt;stroke-linejoin:round;stroke-dasharray:none;stroke-opacity:1"
         d="m 104.52392,150.24882 c -0.20213,-0.20996 -0.28058,-0.59722 -0.2608,-0.85865 0.038,-0.39045 0.22857,-0.51636 0.42856,-1.10015 0.13679,-0.39944 -0.0783,-0.73031 -0.0783,-0.73031 0,0 0.96234,0.74543 1.20452,1.27852 0.11319,0.24917 0.15332,0.53031 0.0797,0.81714 -0.0523,0.2039 -0.13028,0.37273 -0.24213,0.59345 -0.40671,-0.12612 -0.72926,-0.11416 -1.13157,0 -1e-5,0 1e-5,1e-5 1e-5,0 z"
         id="path416-1-7-2-4-9-9"
         sodipodi:nodetypes="ccscasccsc" /><path
         style="font-variation-settings:normal;fill:#ffffff;fill-opacity:1;stroke:#000000;stroke-width:0.22;stroke-linecap:butt;stroke-linejoin:miter;stroke-miterlimit:4;stroke-dasharray:none;stroke-dashoffset:0;stroke-opacity:1;stop-color:#000000"
         d="m 105.59197,150.99619 c 0.0658,0.21669 0.12493,1.57033 0.14548,1.87001 0.013,0.18933 -0.0261,0.34398 -0.26215,0.34682 h -0.77262 c -0.15116,0.002 -0.23512,-0.18217 -0.22663,-0.34682 0,0 0.0427,-1.68785 0.11534,-1.87001 0.0836,-0.20961 0.9179,-0.23444 1.00058,0 z"
         id="path26431-5-9"
         sodipodi:nodetypes="csssssc" /></g></g></svg>
