<?xml version="1.0" encoding="UTF-8" standalone="no"?>
<!-- Created with Inkscape (http://www.inkscape.org/) -->

<svg
   width="32mm"
   height="32mm"
   viewBox="0 0 32.000001 32"
   version="1.1"
   id="svg3354"
   inkscape:version="1.4 (86a8ad7, 2024-10-11)"
   sodipodi:docname="brush.svg"
   xml:space="preserve"
   xmlns:inkscape="http://www.inkscape.org/namespaces/inkscape"
   xmlns:sodipodi="http://sodipodi.sourceforge.net/DTD/sodipodi-0.dtd"
   xmlns="http://www.w3.org/2000/svg"
   xmlns:svg="http://www.w3.org/2000/svg"><sodipodi:namedview
     id="namedview3356"
     pagecolor="#505050"
     bordercolor="#eeeeee"
     borderopacity="1"
     inkscape:showpageshadow="0"
     inkscape:pageopacity="0"
     inkscape:pagecheckerboard="0"
     inkscape:deskcolor="#505050"
     inkscape:document-units="mm"
     showgrid="true"
     inkscape:zoom="2"
     inkscape:cx="-2.25"
     inkscape:cy="77.75"
     inkscape:window-width="1920"
     inkscape:window-height="1027"
     inkscape:window-x="-8"
     inkscape:window-y="-8"
     inkscape:window-maximized="1"
     inkscape:current-layer="layer1"><inkscape:grid
       id="grid1"
       units="mm"
       originx="0"
       originy="0"
       spacingx="1"
       spacingy="0.99999997"
       empcolor="#0099e5"
       empopacity="0.30196078"
       color="#0099e5"
       opacity="0.14901961"
       empspacing="5"
       enabled="true"
       visible="true" /></sodipodi:namedview><defs
     id="defs3351" /><g
     inkscape:label="Слой 1"
     inkscape:groupmode="layer"
     id="layer1"
     transform="translate(-105.24761,-147.65647)"><path
       style="fill:#ffffff;fill-opacity:1;stroke:#000000;stroke-width:1.2;stroke-linecap:butt;stroke-linejoin:round;stroke-dasharray:none;stroke-opacity:1"
       d="m 117.66741,163.0886 c -1.4002,-0.84428 -2.38764,-2.82893 -2.66002,-4.27434 -0.36128,-2.17102 0.48864,-3.13007 0.72488,-6.58396 0.1616,-2.36325 -1.48471,-3.84387 -1.48471,-3.84387 0,0 6.2973,2.6421 8.38377,5.1793 0.97515,1.18588 1.60086,2.65115 1.61837,4.31235 0.0113,1.18091 -0.16494,2.209 -0.4505,3.56745 -2.38714,-0.0925 -4.11762,0.44039 -6.13201,1.64313 0,0 10e-5,0 6e-5,-6e-5 z"
       id="path416-1-7-2-4-9-9"
       sodipodi:nodetypes="ccscasccsc" /><path
       style="font-variation-settings:normal;fill:#ffffff;fill-opacity:1;stroke:#000000;stroke-width:1.2;stroke-linecap:butt;stroke-linejoin:miter;stroke-miterlimit:4;stroke-dasharray:none;stroke-dashoffset:0;stroke-opacity:1;stop-color:#000000"
       d="m 124.80538,166.31659 c 0.67128,1.07874 2.69216,7.5994 3.23863,9.19353 0.34559,1.00714 0.35793,1.90195 -0.91697,2.26003 l -4.18688,1.12188 c -0.81621,0.23057 -1.53859,-0.64579 -1.7317,-1.55032 0,0 -1.95432,-8.47962 -1.8252,-9.57225 0.1487,-1.25724 4.63367,-2.60323 5.42212,-1.45287 z"
       id="path26431-5-9"
       sodipodi:nodetypes="csssssc" /></g></svg>
