<?xml version="1.0" encoding="UTF-8" standalone="no"?>
<!-- Created with Inkscape (http://www.inkscape.org/) -->

<svg
   width="4.5529218mm"
   height="5.6568422mm"
   viewBox="0 0 4.5529219 5.6568424"
   version="1.1"
   id="svg3354"
   inkscape:version="1.2 (dc2aedaf03, 2022-05-15)"
   sodipodi:docname="hand.svg"
   xml:space="preserve"
   xmlns:inkscape="http://www.inkscape.org/namespaces/inkscape"
   xmlns:sodipodi="http://sodipodi.sourceforge.net/DTD/sodipodi-0.dtd"
   xmlns="http://www.w3.org/2000/svg"
   xmlns:svg="http://www.w3.org/2000/svg"><sodipodi:namedview
     id="namedview3356"
     pagecolor="#505050"
     bordercolor="#eeeeee"
     borderopacity="1"
     inkscape:showpageshadow="0"
     inkscape:pageopacity="0"
     inkscape:pagecheckerboard="0"
     inkscape:deskcolor="#505050"
     inkscape:document-units="mm"
     showgrid="false"
     inkscape:zoom="22.627417"
     inkscape:cx="10.363534"
     inkscape:cy="11.578874"
     inkscape:window-width="1920"
     inkscape:window-height="1027"
     inkscape:window-x="-8"
     inkscape:window-y="-8"
     inkscape:window-maximized="1"
     inkscape:current-layer="layer1" /><defs
     id="defs3351" /><g
     inkscape:label="Слой 1"
     inkscape:groupmode="layer"
     id="layer1"
     transform="translate(-98.938071,-159.63037)"><path
       style="fill:#ffffff;fill-opacity:1;stroke:#000000;stroke-width:0.22;stroke-linecap:round;stroke-linejoin:round;stroke-dasharray:none;stroke-opacity:1"
       d="m 101.14072,165.1761 c 0.35558,-0.003 0.71335,0.007 1.06756,-0.005 0.12868,-0.0224 0.39965,-0.14809 0.52292,-0.23071 0.13917,-0.0981 0.24586,-0.19891 0.34018,-0.32199 0.13973,-0.18841 0.2468,-0.40178 0.29137,-0.63599 0.0365,-0.18399 0.002,-0.37693 0.0106,-0.56458 v -2.47935 c -0.033,-0.31511 -0.28057,-0.33848 -0.40484,-0.33388 -0.23887,0.009 -0.31851,0.21055 -0.31851,0.21055 0,0 9.7e-4,-0.42527 -0.006,-0.47668 -0.0235,-0.17308 -0.10462,-0.27486 -0.26655,-0.3246 -0.29974,-0.0921 -0.46372,0.14917 -0.46372,0.14917 0,0 -0.0103,-0.14551 -0.0187,-0.17638 -0.0403,-0.14746 -0.18699,-0.24135 -0.32767,-0.24592 -0.21075,-0.007 -0.288,0.0815 -0.33757,0.16972 -0.0476,0.0774 -0.0649,0.15502 -0.073,0.303 -0.0704,-0.1455 -0.1411,-0.17071 -0.20022,-0.19033 -0.23338,-0.0598 -0.37519,0.008 -0.46941,0.10221 -0.0901,0.12285 -0.11616,0.23201 -0.11072,0.38071 -0.004,0.94693 0.002,1.89391 0,2.84086 -0.004,0.0522 -0.044,0.12928 -0.1574,0.0635 -0.270214,-0.12702 -0.419016,-0.23567 -0.689186,-0.35951 -0.174801,-0.0652 -0.392685,0.0463 -0.446212,0.18727 -0.02938,0.052 -0.07586,0.25633 0.03229,0.36214 0.46839,0.4441 0.930208,0.89761 1.401988,1.33664 0.22373,0.16127 0.38144,0.22841 0.62192,0.23904 z"
       id="path1216-3"
       sodipodi:nodetypes="cccccccscsscssccccccccccccc" /><path
       style="fill:none;stroke:#000000;stroke-width:0.22;stroke-linecap:round;stroke-linejoin:miter;stroke-dasharray:none;stroke-opacity:1"
       d="m 102.64894,160.84572 v 1.08555"
       id="path7096-8"
       sodipodi:nodetypes="cc" /><path
       style="fill:none;stroke:#000000;stroke-width:0.221165;stroke-linecap:round;stroke-linejoin:miter;stroke-dasharray:none;stroke-opacity:1"
       d="m 101.91398,160.18718 v 1.74529"
       id="path7096-4-5"
       sodipodi:nodetypes="cc" /><path
       style="fill:none;stroke:#000000;stroke-width:0.221182;stroke-linecap:round;stroke-linejoin:miter;stroke-dasharray:none;stroke-opacity:1"
       d="m 101.15761,160.21494 v 1.71681"
       id="path7096-4-6-9"
       sodipodi:nodetypes="cc" /></g></svg>
