<?xml version="1.0" encoding="UTF-8" standalone="no"?>
<!-- Created with Inkscape (http://www.inkscape.org/) -->

<svg
   width="32mm"
   height="32mm"
   viewBox="0 0 32 31.999999"
   version="1.1"
   id="svg3354"
   inkscape:version="1.4 (86a8ad7, 2024-10-11)"
   sodipodi:docname="hand.svg"
   xml:space="preserve"
   xmlns:inkscape="http://www.inkscape.org/namespaces/inkscape"
   xmlns:sodipodi="http://sodipodi.sourceforge.net/DTD/sodipodi-0.dtd"
   xmlns="http://www.w3.org/2000/svg"
   xmlns:svg="http://www.w3.org/2000/svg"><sodipodi:namedview
     id="namedview3356"
     pagecolor="#505050"
     bordercolor="#eeeeee"
     borderopacity="1"
     inkscape:showpageshadow="0"
     inkscape:pageopacity="0"
     inkscape:pagecheckerboard="false"
     inkscape:deskcolor="#505050"
     inkscape:document-units="mm"
     showgrid="true"
     inkscape:zoom="8.0000004"
     inkscape:cx="41.562498"
     inkscape:cy="76.437497"
     inkscape:window-width="1920"
     inkscape:window-height="1027"
     inkscape:window-x="-8"
     inkscape:window-y="-8"
     inkscape:window-maximized="1"
     inkscape:current-layer="layer1"><inkscape:grid
       id="grid1"
       units="mm"
       originx="0"
       originy="0"
       spacingx="0.99999992"
       spacingy="0.99999996"
       empcolor="#0099e5"
       empopacity="0.30196078"
       color="#0099e5"
       opacity="0.14901961"
       empspacing="5"
       enabled="true"
       visible="true" /></sodipodi:namedview><defs
     id="defs3351" /><g
     inkscape:label="Слой 1"
     inkscape:groupmode="layer"
     id="layer1"
     transform="translate(-101.83622,-163.52676)"><path
       style="fill:#ffffff;fill-opacity:1;stroke:#000000;stroke-width:1.1;stroke-linecap:round;stroke-linejoin:round;stroke-dasharray:none;stroke-opacity:1"
       d="m 118.16662,194.85213 c 2.50333,0 3.89218,-0.19157 5.71632,-1.36505 3.09567,-1.99197 4.44278,-5.17623 4.44006,-8.65809 v -14.01078 c -0.18648,-1.78069 -0.86029,-2.05448 -2.22408,-2.0338 -1.69784,0.0257 -1.78787,1.8128 -1.78787,1.8128 0,0 -0.004,-1.9565 -0.0361,-3.07615 -0.0428,-1.51365 -0.79017,-1.96227 -1.69431,-2.06063 -2.17492,-0.2366 -2.23984,1.39987 -2.23984,1.39987 0.004,-2.16478 -1.05914,-2.65727 -1.91668,-2.65891 -1.82689,-0.003 -2.01776,1.18115 -2.10314,2.74111 -0.16196,-1.11538 -1.01765,-1.49863 -1.98696,-1.48207 -1.68599,0.0288 -1.89365,1.1045 -2.01371,2.6628 -0.0226,5.35109 0.0113,9.58109 0,14.93229 -0.53006,-1.11663 -0.66629,-2.19324 -1.05221,-3.24163 -0.88163,-2.39504 -0.48175,-3.45027 -2.44236,-3.1215 -1.40169,0.23505 -1.47271,1.3151 -1.47627,2.16693 -0.006,1.86952 0.62665,5.52918 1.05158,7.00652 0.70689,2.45759 1.73986,4.98008 4.64893,7.31597 0.97378,0.78193 2.72224,1.67032 5.11663,1.67032 z"
       id="path1216-3"
       sodipodi:nodetypes="ssccscsscscsccsssssss" /><path
       style="fill:none;stroke:#000000;stroke-width:1.1;stroke-linecap:round;stroke-linejoin:miter;stroke-dasharray:none;stroke-opacity:1"
       d="m 124.30902,170.65713 v 7.32731"
       id="path7096-8"
       sodipodi:nodetypes="cc" /><path
       style="fill:none;stroke:#000000;stroke-width:1.1;stroke-linecap:round;stroke-linejoin:miter;stroke-dasharray:none;stroke-opacity:1"
       d="m 120.33585,166.94963 v 11.03481"
       id="path7096-4-5"
       sodipodi:nodetypes="cc" /><path
       style="fill:none;stroke:#000000;stroke-width:1.1;stroke-linecap:round;stroke-linejoin:miter;stroke-dasharray:none;stroke-opacity:1"
       d="m 116.31844,167.00484 v 10.9796"
       id="path7096-4-6-9"
       sodipodi:nodetypes="cc" /></g></svg>
