<?xml version="1.0" encoding="UTF-8" standalone="no"?>
<svg
   xmlns:dc="http://purl.org/dc/elements/1.1/"
   xmlns:cc="http://creativecommons.org/ns#"
   xmlns:rdf="http://www.w3.org/1999/02/22-rdf-syntax-ns#"
   xmlns:svg="http://www.w3.org/2000/svg"
   xmlns="http://www.w3.org/2000/svg"
   xmlns:sodipodi="http://sodipodi.sourceforge.net/DTD/sodipodi-0.dtd"
   xmlns:inkscape="http://www.inkscape.org/namespaces/inkscape"
   width="58.805191mm"
   height="58.805191mm"
   viewBox="0 0 58.80519 58.805191"
   version="1.1"
   id="svg1427"
   inkscape:version="1.0.2-2 (e86c870879, 2021-01-15)"
   sodipodi:docname="vision-22.svg">
  <defs
     id="defs1421" />
  <sodipodi:namedview
     id="base"
     pagecolor="#ffffff"
     bordercolor="#666666"
     borderopacity="1.0"
     inkscape:pageopacity="0.0"
     inkscape:pageshadow="2"
     inkscape:zoom="0.98994949"
     inkscape:cx="-20.879613"
     inkscape:cy="158.79808"
     inkscape:document-units="mm"
     inkscape:current-layer="layer1"
     inkscape:document-rotation="0"
     showgrid="false"
     fit-margin-top="0"
     fit-margin-left="0"
     fit-margin-right="0"
     fit-margin-bottom="0"
     inkscape:window-width="1920"
     inkscape:window-height="1027"
     inkscape:window-x="-8"
     inkscape:window-y="-8"
     inkscape:window-maximized="1" />
  <metadata
     id="metadata1424">
    <rdf:RDF>
      <cc:Work
         rdf:about="">
        <dc:format>image/svg+xml</dc:format>
        <dc:type
           rdf:resource="http://purl.org/dc/dcmitype/StillImage" />
        <dc:title />
      </cc:Work>
    </rdf:RDF>
  </metadata>
  <g
     inkscape:label="Слой 1"
     inkscape:groupmode="layer"
     id="layer1"
     transform="translate(-75.602019,-119.10654)">
    <path
       id="path2521"
       style="fill:#ffffff;fill-opacity:1;stroke:none;stroke-width:7.59798;stroke-linecap:butt;stroke-linejoin:round;stroke-miterlimit:4;stroke-dasharray:none;stroke-opacity:1;paint-order:stroke fill markers;stop-color:#000000"
       d="M 100.34375 59.972656 C 83.918379 63.460913 69.503841 75.122741 62.949219 90.652344 C 61.724645 93.450009 60.78995 96.349806 60.117188 99.306641 A 28.652487 28.652487 0 0 0 76.431641 104.40625 A 28.652487 28.652487 0 0 0 105.08398 75.753906 A 28.652487 28.652487 0 0 0 100.34375 59.972656 z "
       transform="matrix(0.26458333,0,0,0.26458333,75.602019,119.10654)" />
    <path
       id="path1168-3-4-2"
       style="fill:#eacc53;fill-opacity:1;stroke:none;stroke-width:0.264583px;stroke-linecap:butt;stroke-linejoin:miter;stroke-opacity:1"
       d="m 105.00254,119.10654 v 5.2e-4 c -16.065905,0 -29.227505,13.06018 -29.398205,29.08763 l 11.4231,-1.44487 c 0.8293,-8.74226 7.779,-15.5805 16.571605,-16.24397 l 1.6707,-11.39517 c -0.089,0 -0.1779,-0.004 -0.2672,-0.004 z" />
    <path
       id="path849-1-6-7-02-4"
       style="color:#000000;font-style:normal;font-variant:normal;font-weight:normal;font-stretch:normal;font-size:medium;line-height:normal;font-family:sans-serif;font-variant-ligatures:normal;font-variant-position:normal;font-variant-caps:normal;font-variant-numeric:normal;font-variant-alternates:normal;font-variant-east-asian:normal;font-feature-settings:normal;font-variation-settings:normal;text-indent:0;text-align:start;text-decoration:none;text-decoration-line:none;text-decoration-style:solid;text-decoration-color:#000000;letter-spacing:normal;word-spacing:normal;text-transform:none;writing-mode:lr-tb;direction:ltr;text-orientation:mixed;dominant-baseline:auto;baseline-shift:baseline;text-anchor:start;white-space:normal;shape-padding:0;shape-margin:0;inline-size:0;clip-rule:nonzero;display:inline;overflow:visible;visibility:visible;isolation:auto;mix-blend-mode:normal;color-interpolation:sRGB;color-interpolation-filters:linearRGB;solid-color:#000000;solid-opacity:1;vector-effect:none;fill:#eb7253;fill-opacity:1;fill-rule:nonzero;stroke:none;stroke-width:1;stroke-linecap:round;stroke-linejoin:round;stroke-miterlimit:4;stroke-dasharray:none;stroke-dashoffset:0;stroke-opacity:1;paint-order:fill markers stroke;color-rendering:auto;image-rendering:auto;shape-rendering:auto;text-rendering:auto;enable-background:accumulate;stop-color:#000000"
       d="m 113.18504,120.27442 -1.6676,11.36986 c 6.7817,2.59167 11.5476,9.12561 11.5476,16.86512 0,10.04224 -8.0203,18.06091 -18.0625,18.06091 -7.866505,0 -14.489405,-4.92085 -16.990705,-11.8799 l -11.4008,1.4423 c 3.3798,12.50661 14.8545,21.77902 28.391505,21.77902 16.1712,0 29.40235,-13.23118 29.40235,-29.40233 0,-13.33447 -8.99705,-24.66843 -21.21985,-28.23498 z"
       sodipodi:nodetypes="ccssccssc" />
    <path
       id="path835-4-18-5-7-8-5"
       style="fill:#a953eb;fill-opacity:1;stroke:none;stroke-width:0.961667;stroke-linecap:round;stroke-linejoin:round;stroke-miterlimit:4;stroke-dasharray:none;stroke-opacity:1;paint-order:fill markers stroke;stop-color:#000000"
       d="m 105.00264,134.51515 a 13.994255,13.994255 0 0 0 -2.9487,0.31433 7.5809705,7.5809705 0 0 1 1.3517,4.32025 7.5809705,7.5809705 0 0 1 -7.581005,7.58101 7.5809705,7.5809705 0 0 1 -4.4415,-1.43744 13.994255,13.994255 0 0 0 -0.3747,3.21605 13.994255,13.994255 0 0 0 13.994205,13.99425 13.994255,13.994255 0 0 0 13.9943,-13.99425 13.994255,13.994255 0 0 0 -13.9943,-13.9942 z" />
  </g>
</svg>
