<?xml version="1.0" encoding="UTF-8" standalone="no"?>
<svg
   xmlns:dc="http://purl.org/dc/elements/1.1/"
   xmlns:cc="http://creativecommons.org/ns#"
   xmlns:rdf="http://www.w3.org/1999/02/22-rdf-syntax-ns#"
   xmlns:svg="http://www.w3.org/2000/svg"
   xmlns="http://www.w3.org/2000/svg"
   xmlns:sodipodi="http://sodipodi.sourceforge.net/DTD/sodipodi-0.dtd"
   xmlns:inkscape="http://www.inkscape.org/namespaces/inkscape"
   width="158.90886mm"
   height="132.44084mm"
   viewBox="0 0 158.90885 132.44083"
   version="1.1"
   id="svg980"
   inkscape:version="1.0.2-2 (e86c870879, 2021-01-15)"
   sodipodi:docname="eye-outlined-crossed-out.svg">
  <defs
     id="defs974" />
  <sodipodi:namedview
     id="base"
     pagecolor="#ffffff"
     bordercolor="#666666"
     borderopacity="1.0"
     inkscape:pageopacity="0.0"
     inkscape:pageshadow="2"
     inkscape:zoom="0.40421407"
     inkscape:cx="314.06631"
     inkscape:cy="318.01211"
     inkscape:document-units="mm"
     inkscape:current-layer="layer1"
     showgrid="false"
     inkscape:window-width="1920"
     inkscape:window-height="1027"
     inkscape:window-x="-8"
     inkscape:window-y="-8"
     inkscape:window-maximized="1"
     fit-margin-top="0"
     fit-margin-left="0"
     fit-margin-right="0"
     fit-margin-bottom="0"
     inkscape:document-rotation="0" />
  <metadata
     id="metadata977">
    <rdf:RDF>
      <cc:Work
         rdf:about="">
        <dc:format>image/svg+xml</dc:format>
        <dc:type
           rdf:resource="http://purl.org/dc/dcmitype/StillImage" />
        <dc:title />
      </cc:Work>
    </rdf:RDF>
  </metadata>
  <g
     inkscape:label="Layer 1"
     inkscape:groupmode="layer"
     id="layer1"
     transform="translate(-25.54861,-82.299409)">
    <path
       id="path930-1-1-6"
       style="opacity:1;fill:#a0a0a0;fill-opacity:1;stroke:#ffffff;stroke-width:5;stroke-linecap:butt;stroke-linejoin:round;stroke-miterlimit:4;stroke-dasharray:none;stroke-opacity:1;paint-order:normal"
       d="m 103.61523,109.63281 c -12.845417,0.49663 -24.919848,9.67406 -28.639999,22.0122 -3.486256,11.02502 -0.406148,23.96262 8.035248,31.95242 7.180098,6.98135 17.796751,10.42217 27.675701,8.44755 10.21463,-1.88374 19.3953,-9.05642 23.3115,-18.73219 3.94669,-9.36086 3.12172,-20.66943 -2.49491,-29.18753 -5.27478,-8.27817 -14.5984,-13.8521 -24.41665,-14.41789 -1.15513,-0.0793 -2.31332,-0.10908 -3.47089,-0.0746 z"
       sodipodi:nodetypes="ccccccccc" />
    <ellipse
       style="opacity:1;mix-blend-mode:normal;fill:#ffffff;fill-opacity:1;stroke:#ffffff;stroke-width:5;stroke-linejoin:round;stroke-miterlimit:4;stroke-dasharray:none;stroke-opacity:1;paint-order:fill markers stroke;stop-color:#000000"
       id="path834"
       cx="41.65799"
       cy="169.10292"
       rx="6.72995"
       ry="7.2476382"
       transform="rotate(-27.579269)" />
    <path
       id="path839-8-3-1-9-5-28"
       style="color:#000000;font-style:normal;font-variant:normal;font-weight:normal;font-stretch:normal;font-size:medium;line-height:normal;font-family:sans-serif;font-variant-ligatures:normal;font-variant-position:normal;font-variant-caps:normal;font-variant-numeric:normal;font-variant-alternates:normal;font-feature-settings:normal;text-indent:0;text-align:start;text-decoration:none;text-decoration-line:none;text-decoration-style:solid;text-decoration-color:#000000;letter-spacing:normal;word-spacing:normal;text-transform:none;writing-mode:lr-tb;direction:ltr;text-orientation:mixed;dominant-baseline:auto;baseline-shift:baseline;text-anchor:start;white-space:normal;shape-padding:0;clip-rule:nonzero;display:inline;overflow:visible;visibility:visible;opacity:1;isolation:auto;mix-blend-mode:normal;color-interpolation:sRGB;color-interpolation-filters:linearRGB;solid-color:#000000;solid-opacity:1;vector-effect:none;fill:#a0a0a0;fill-opacity:1;fill-rule:nonzero;stroke:#ffffff;stroke-width:5;stroke-linecap:butt;stroke-linejoin:round;stroke-miterlimit:4;stroke-dasharray:none;stroke-dashoffset:0;stroke-opacity:1;paint-order:fill markers stroke;color-rendering:auto;image-rendering:auto;shape-rendering:auto;text-rendering:auto;enable-background:accumulate"
       d="m 103.6875,103.24023 c -21.068026,0.3379 -41.753967,8.58991 -57.718507,22.25487 -6.317632,5.3516 -12.133199,11.37436 -16.803148,18.22892 -2.156277,4.16325 -0.962326,9.53615 2.299045,12.78174 12.559246,15.92217 29.915589,28.25319 49.485502,33.84899 19.567098,5.67596 41.110568,4.15105 59.695918,-4.18976 15.70187,-6.93057 29.46663,-18.12088 39.61144,-31.94966 2.41117,-3.55395 2.14368,-8.52996 -0.34302,-11.9734 -1.56085,-2.10862 -3.30119,-4.08126 -5.00214,-6.07769 -13.1824,-15.00133 -30.89045,-26.2284 -50.43563,-30.68554 -6.80973,-1.56044 -13.80391,-2.30738 -20.78946,-2.23847 z M 105,124.48438 c 11.93726,0.0349 23.80885,3.42117 34.15349,9.46467 6.70715,3.9014 12.8009,8.88063 18.10628,14.58025 -7.51428,8.08508 -16.69044,14.68295 -26.91016,18.90234 -7.11924,2.94048 -14.89795,4.6893 -22.58463,5.00541 -7.60931,0.32104 -15.242398,-0.69727 -22.493408,-2.989 -9.101638,-2.86771 -17.646971,-7.66619 -25.006203,-13.81818 -2.569796,-2.13036 -5.020124,-4.49823 -7.344888,-6.94483 -0.462663,-0.38131 0.596962,-0.80778 0.764301,-1.20596 8.271315,-8.58209 18.410521,-15.43048 29.687131,-19.30517 C 90.269525,125.79139 97.654784,124.5221 105,124.48438 Z" />
    <path
       id="path819-1-9-2"
       style="color:#000000;font-style:normal;font-variant:normal;font-weight:normal;font-stretch:normal;font-size:medium;line-height:normal;font-family:sans-serif;font-variant-ligatures:normal;font-variant-position:normal;font-variant-caps:normal;font-variant-numeric:normal;font-variant-alternates:normal;font-feature-settings:normal;text-indent:0;text-align:start;text-decoration:none;text-decoration-line:none;text-decoration-style:solid;text-decoration-color:#000000;letter-spacing:normal;word-spacing:normal;text-transform:none;writing-mode:lr-tb;direction:ltr;text-orientation:mixed;dominant-baseline:auto;baseline-shift:baseline;text-anchor:start;white-space:normal;shape-padding:0;clip-rule:nonzero;display:inline;overflow:visible;visibility:visible;opacity:1;isolation:auto;mix-blend-mode:normal;color-interpolation:sRGB;color-interpolation-filters:linearRGB;solid-color:#000000;solid-opacity:1;vector-effect:none;fill:#a0a0a0;fill-opacity:1;fill-rule:nonzero;stroke:#ffffff;stroke-width:5;stroke-linecap:round;stroke-linejoin:round;stroke-miterlimit:4;stroke-dasharray:none;stroke-dashoffset:0;stroke-opacity:1;color-rendering:auto;image-rendering:auto;shape-rendering:auto;text-rendering:auto;enable-background:accumulate"
       d="m 157.86719,84.824219 c -3.05437,0.161256 -5.7933,1.928326 -7.73558,4.208214 C 114.67957,124.4839 79.216895,159.92598 43.791605,195.40341 c -3.295036,3.62598 -3.306368,9.69876 -0.01426,13.33292 3.040442,3.53742 8.657714,4.57967 12.677734,2.12695 2.414757,-1.45828 4.11368,-3.77697 6.171977,-5.65825 34.522178,-34.52207 69.053424,-69.03624 103.548464,-103.58471 3.3852,-3.695441 3.32513,-9.981235 -0.19257,-13.57219 -2.04523,-2.208469 -5.10981,-3.437812 -8.11576,-3.223911 z" />
  </g>
</svg>
