<?xml version="1.0" encoding="UTF-8" standalone="no"?>
<!-- Created with Inkscape (http://www.inkscape.org/) -->

<svg
   width="32mm"
   height="32mm"
   viewBox="0 0 32 31.999999"
   version="1.1"
   id="svg3354"
   inkscape:version="1.4 (86a8ad7, 2024-10-11)"
   sodipodi:docname="hand-grab.svg"
   xml:space="preserve"
   xmlns:inkscape="http://www.inkscape.org/namespaces/inkscape"
   xmlns:sodipodi="http://sodipodi.sourceforge.net/DTD/sodipodi-0.dtd"
   xmlns="http://www.w3.org/2000/svg"
   xmlns:svg="http://www.w3.org/2000/svg"><sodipodi:namedview
     id="namedview3356"
     pagecolor="#505050"
     bordercolor="#eeeeee"
     borderopacity="1"
     inkscape:showpageshadow="0"
     inkscape:pageopacity="0"
     inkscape:pagecheckerboard="false"
     inkscape:deskcolor="#505050"
     inkscape:document-units="mm"
     showgrid="true"
     inkscape:zoom="2.0000001"
     inkscape:cx="0.49999997"
     inkscape:cy="31.249998"
     inkscape:window-width="1920"
     inkscape:window-height="1027"
     inkscape:window-x="-8"
     inkscape:window-y="-8"
     inkscape:window-maximized="1"
     inkscape:current-layer="layer1"><inkscape:grid
       id="grid1"
       units="mm"
       originx="0"
       originy="0"
       spacingx="0.99999992"
       spacingy="0.99999996"
       empcolor="#0099e5"
       empopacity="0.30196078"
       color="#0099e5"
       opacity="0.14901961"
       empspacing="5"
       enabled="true"
       visible="true" /></sodipodi:namedview><defs
     id="defs3351" /><g
     inkscape:label="Слой 1"
     inkscape:groupmode="layer"
     id="layer1"
     transform="translate(-101.83622,-163.52676)"><g
       id="g2"
       transform="translate(1.9303389,-1.9236124)"><path
         style="fill:#ffffff;fill-opacity:1;stroke:#000000;stroke-width:0.907052;stroke-linecap:round;stroke-linejoin:round;stroke-dasharray:none;stroke-opacity:1"
         d="m 116.16666,194.9486 c 2.06422,0 3.20946,-0.15796 4.71363,-1.12561 2.55267,-1.64256 3.96115,-4.26828 3.9589,-7.13939 v -4.61095 c 0.0969,-2.43255 -1.0342,-2.77619 -2.28161,-2.75462 -1.35008,0.0233 -1.31059,1.33231 -1.31059,1.33231 l -0.0137,1.24007 c 0,0 -0.0169,-1.64058 -0.0298,-2.53657 -0.0179,-1.24851 -0.65157,-1.61807 -1.39711,-1.69918 -1.79343,-0.19509 -1.84696,1.15433 -1.84696,1.15433 0.003,-1.78506 -0.87336,-2.19117 -1.58048,-2.19252 -1.50644,-0.002 -1.66383,0.97397 -1.73423,2.2603 -0.13355,-0.91974 -0.83915,-1.23576 -1.63843,-1.22211 -1.39026,0.0238 -1.52059,0.91077 -1.66049,2.19573 0.0223,2.81707 0,5.37082 0,5.37082 l -0.0863,-5.36108 c 0,0 -3.73701,1.17124 -3.95811,3.33269 -0.15688,1.5336 0.1839,4.44206 0.74109,5.46818 0.62501,1.15098 1.50616,2.98411 3.90496,4.91027 0.80297,0.64477 2.24474,1.37733 4.21913,1.37733 z"
         id="path1216-3-4"
         sodipodi:nodetypes="ssccsccsscscscccsssss" /><path
         style="fill:none;stroke:#000000;stroke-width:0.907052;stroke-linecap:round;stroke-linejoin:miter;stroke-dasharray:none;stroke-opacity:1"
         d="m 117.95539,178.59437 v 2.44526"
         id="path7096-4-5"
         sodipodi:nodetypes="cc" /><path
         style="fill:none;stroke:#000000;stroke-width:0.907052;stroke-linecap:round;stroke-linejoin:miter;stroke-dasharray:none;stroke-opacity:1"
         d="m 114.64266,178.6399 v 2.39973"
         id="path7096-4-6-9"
         sodipodi:nodetypes="cc" /></g></g></svg>
