<?xml version="1.0" encoding="UTF-8" standalone="no"?>
<svg
   xmlns:dc="http://purl.org/dc/elements/1.1/"
   xmlns:cc="http://creativecommons.org/ns#"
   xmlns:rdf="http://www.w3.org/1999/02/22-rdf-syntax-ns#"
   xmlns:svg="http://www.w3.org/2000/svg"
   xmlns="http://www.w3.org/2000/svg"
   xmlns:sodipodi="http://sodipodi.sourceforge.net/DTD/sodipodi-0.dtd"
   xmlns:inkscape="http://www.inkscape.org/namespaces/inkscape"
   width="58.805191mm"
   height="58.805191mm"
   viewBox="0 0 58.80519 58.805191"
   version="1.1"
   id="svg1427"
   inkscape:version="1.0.2-2 (e86c870879, 2021-01-15)"
   sodipodi:docname="vision.svg">
  <defs
     id="defs1421" />
  <sodipodi:namedview
     id="base"
     pagecolor="#ffffff"
     bordercolor="#666666"
     borderopacity="1.0"
     inkscape:pageopacity="0.0"
     inkscape:pageshadow="2"
     inkscape:zoom="0.7071068"
     inkscape:cx="183.58136"
     inkscape:cy="171.43979"
     inkscape:document-units="mm"
     inkscape:current-layer="layer1"
     inkscape:document-rotation="0"
     showgrid="false"
     fit-margin-top="0"
     fit-margin-left="0"
     fit-margin-right="0"
     fit-margin-bottom="0"
     inkscape:window-width="1920"
     inkscape:window-height="1027"
     inkscape:window-x="-8"
     inkscape:window-y="-8"
     inkscape:window-maximized="1"
     inkscape:snap-bbox="true"
     inkscape:snap-object-midpoints="true"
     inkscape:snap-global="true" />
  <metadata
     id="metadata1424">
    <rdf:RDF>
      <cc:Work
         rdf:about="">
        <dc:format>image/svg+xml</dc:format>
        <dc:type
           rdf:resource="http://purl.org/dc/dcmitype/StillImage" />
        <dc:title />
      </cc:Work>
    </rdf:RDF>
  </metadata>
  <g
     inkscape:label="Слой 1"
     inkscape:groupmode="layer"
     id="layer1"
     transform="translate(-75.602019,-119.10654)">
    <path
       id="path840"
       style="fill:#a953eb;fill-opacity:1;stroke-width:7.48241;stroke-linejoin:round;paint-order:stroke fill markers;stop-color:#000000"
       d="M 111.09766 62.292969 A 48.820697 48.820697 0 0 0 105.07227 62.666016 A 30.750001 30.750001 0 0 1 108.75 77.25 A 30.750001 30.750001 0 0 1 78 108 A 30.750001 30.750001 0 0 1 62.800781 103.98047 A 48.820697 48.820697 0 0 0 62.277344 111.11328 A 48.820697 48.820697 0 0 0 111.09766 159.93555 A 48.820697 48.820697 0 0 0 159.91797 111.11328 A 48.820697 48.820697 0 0 0 111.09766 62.292969 z "
       transform="matrix(0.26458333,0,0,0.26458333,75.602019,119.10654)" />
    <path
       id="path1168-3-4-2"
       style="fill:#eacc53;fill-opacity:1;stroke:none;stroke-width:0.264583px;stroke-linecap:butt;stroke-linejoin:miter;stroke-opacity:1"
       d="m 105.00254,119.10654 v 5.2e-4 c -16.065905,0 -29.227505,13.06018 -29.398205,29.08763 l 11.4231,-1.44487 c 0.8293,-8.74226 7.779,-15.5805 16.571605,-16.24397 l 1.6707,-11.39517 c -0.089,0 -0.1779,-0.004 -0.2672,-0.004 z" />
    <path
       id="path849-1-6-7-02-4"
       style="color:#000000;font-style:normal;font-variant:normal;font-weight:normal;font-stretch:normal;font-size:medium;line-height:normal;font-family:sans-serif;font-variant-ligatures:normal;font-variant-position:normal;font-variant-caps:normal;font-variant-numeric:normal;font-variant-alternates:normal;font-variant-east-asian:normal;font-feature-settings:normal;font-variation-settings:normal;text-indent:0;text-align:start;text-decoration:none;text-decoration-line:none;text-decoration-style:solid;text-decoration-color:#000000;letter-spacing:normal;word-spacing:normal;text-transform:none;writing-mode:lr-tb;direction:ltr;text-orientation:mixed;dominant-baseline:auto;baseline-shift:baseline;text-anchor:start;white-space:normal;shape-padding:0;shape-margin:0;inline-size:0;clip-rule:nonzero;display:inline;overflow:visible;visibility:visible;isolation:auto;mix-blend-mode:normal;color-interpolation:sRGB;color-interpolation-filters:linearRGB;solid-color:#000000;solid-opacity:1;vector-effect:none;fill:#eb7253;fill-opacity:1;fill-rule:nonzero;stroke:none;stroke-width:1;stroke-linecap:round;stroke-linejoin:round;stroke-miterlimit:4;stroke-dasharray:none;stroke-dashoffset:0;stroke-opacity:1;paint-order:fill markers stroke;color-rendering:auto;image-rendering:auto;shape-rendering:auto;text-rendering:auto;enable-background:accumulate;stop-color:#000000"
       d="m 113.18504,120.27442 -1.6676,11.36986 c 6.7817,2.59167 11.5476,9.12561 11.5476,16.86512 0,10.04224 -8.0203,18.06091 -18.0625,18.06091 -7.866505,0 -14.489405,-4.92085 -16.990705,-11.8799 l -11.4008,1.4423 c 3.3798,12.50661 14.8545,21.77902 28.391505,21.77902 16.1712,0 29.40235,-13.23118 29.40235,-29.40233 0,-13.33447 -8.99705,-24.66843 -21.21985,-28.23498 z"
       sodipodi:nodetypes="ccssccssc" />
    <path
       id="path840-9"
       style="fill:#ffffff;fill-opacity:1;stroke-width:1.97972;stroke-linejoin:round;paint-order:stroke fill markers;stop-color:#000000"
       d="m 103.40239,135.68692 a 12.917143,12.917143 0 0 0 -11.183813,10.9306 8.1359377,8.1359377 0 0 0 4.02146,1.0635 8.1359377,8.1359377 0 0 0 8.135933,-8.13593 8.1359377,8.1359377 0 0 0 -0.97358,-3.85817 z" />
  </g>
</svg>
