<?xml version="1.0" encoding="UTF-8" standalone="no"?>
<svg
   width="57.918106mm"
   height="57.918003mm"
   viewBox="0 0 57.918103 57.918003"
   version="1.1"
   id="svg1427"
   inkscape:version="1.2 (dc2aedaf03, 2022-05-15)"
   sodipodi:docname="biocell.svg"
   xmlns:inkscape="http://www.inkscape.org/namespaces/inkscape"
   xmlns:sodipodi="http://sodipodi.sourceforge.net/DTD/sodipodi-0.dtd"
   xmlns="http://www.w3.org/2000/svg"
   xmlns:svg="http://www.w3.org/2000/svg"
   xmlns:rdf="http://www.w3.org/1999/02/22-rdf-syntax-ns#"
   xmlns:cc="http://creativecommons.org/ns#"
   xmlns:dc="http://purl.org/dc/elements/1.1/">
  <defs
     id="defs1421" />
  <sodipodi:namedview
     id="base"
     pagecolor="#ffffff"
     bordercolor="#666666"
     borderopacity="1.0"
     inkscape:pageopacity="0.0"
     inkscape:pageshadow="2"
     inkscape:zoom="0.70710681"
     inkscape:cx="-104.6518"
     inkscape:cy="65.053821"
     inkscape:document-units="mm"
     inkscape:current-layer="layer1"
     inkscape:document-rotation="0"
     showgrid="false"
     fit-margin-top="0"
     fit-margin-left="0"
     fit-margin-right="0"
     fit-margin-bottom="0"
     inkscape:window-width="1920"
     inkscape:window-height="1027"
     inkscape:window-x="-8"
     inkscape:window-y="-8"
     inkscape:window-maximized="1"
     inkscape:snap-bbox="true"
     inkscape:snap-object-midpoints="true"
     inkscape:snap-global="true"
     inkscape:showpageshadow="0"
     inkscape:pagecheckerboard="0"
     inkscape:deskcolor="#d1d1d1" />
  <metadata
     id="metadata1424">
    <rdf:RDF>
      <cc:Work
         rdf:about="">
        <dc:format>image/svg+xml</dc:format>
        <dc:type
           rdf:resource="http://purl.org/dc/dcmitype/StillImage" />
      </cc:Work>
    </rdf:RDF>
  </metadata>
  <g
     inkscape:label="Слой 1"
     inkscape:groupmode="layer"
     id="layer1"
     transform="translate(-76.045566,-119.55014)">
    <circle
       style="font-variation-settings:normal;fill:#f3dbb8;fill-opacity:1;fill-rule:evenodd;stroke:none;stroke-width:6.97875;stroke-linecap:butt;stroke-linejoin:round;stroke-miterlimit:4;stroke-dasharray:none;stroke-dashoffset:0;stroke-opacity:1;stop-color:#000000"
       id="path70097-91-83-9-3-5-4-5-0-0-8"
       cx="105.00445"
       cy="148.50902"
       r="25.469507" />
    <path
       style="fill:#de25d7;fill-opacity:1;stroke:none;stroke-width:0.361694px;stroke-linecap:butt;stroke-linejoin:miter;stroke-opacity:1"
       d="m 109.63839,132.02235 c -1.22905,0.0207 -6.21389,2.22739 -6.68551,3.20718 -0.44544,0.9254 -0.56251,7.89278 -0.0192,8.63941 0.52401,0.71987 5.23247,3.76539 6.55898,3.76323 0.94595,0 5.73321,-3.12117 6.34387,-3.97834 0.59503,-0.83515 0.34826,-7.62697 -0.10743,-8.2793 -0.54091,-0.77436 -5.13754,-3.36755 -6.09085,-3.35218 z"
       id="path60779-4-8-9-79-2-8-0-4-7-4"
       sodipodi:nodetypes="sssssss" />
    <path
       style="fill:#7d16ae;fill-opacity:1;stroke:none;stroke-width:0.381079px;stroke-linecap:butt;stroke-linejoin:miter;stroke-opacity:1"
       d="m 101.16433,148.45399 c -1.676375,-0.0181 -6.415286,3.05787 -7.137085,4.07843 -0.651176,0.92064 -0.803664,7.58102 -0.113351,8.4964 0.905219,1.20026 5.508603,4.05606 6.910506,3.96504 1.50182,-0.0978 5.8824,-3.11573 6.6839,-4.19155 0.74527,-1.00035 0.46058,-6.46134 -0.0506,-7.65953 -0.64862,-1.52021 -4.89161,-4.6735 -6.29334,-4.68879 z"
       id="path60779-0-9-1-9-9-1-3-1-0-4-4"
       sodipodi:nodetypes="sssssss" />
    <path
       style="fill:#de25d7;fill-opacity:1;stroke:none;stroke-width:0.312157px;stroke-linecap:butt;stroke-linejoin:miter;stroke-opacity:1"
       d="m 115.61301,148.12262 c -1.72535,0 -4.86734,2.29154 -5.3723,3.03109 -0.65653,0.96158 -0.2319,4.12195 0.10777,4.83223 0.49389,1.03282 4.12736,3.43948 5.17641,3.47886 1.22559,0.0458 4.46592,-2.27376 5.01999,-3.32437 0.39981,-0.75803 0.29417,-4.20433 -0.17615,-5.08447 -0.49262,-0.92194 -3.68899,-2.93334 -4.75575,-2.93334 z"
       id="path60781-9-2-4-83-6-2-6-1-0-3"
       sodipodi:nodetypes="ssssssss" />
    <path
       style="fill:#de25d7;fill-opacity:1;stroke:none;stroke-width:0.300985px;stroke-linecap:butt;stroke-linejoin:miter;stroke-opacity:1"
       d="m 94.619211,137.68674 c -1.164849,-0.0458 -4.76898,2.2361 -5.15108,2.9013 -0.444483,0.77367 -0.212211,3.6982 0.04301,4.28016 0.423473,0.96615 4.026966,3.33179 5.152712,3.36348 0.937698,0.0268 4.427365,-2.39034 4.887277,-3.09077 0.402903,-0.61356 0.334933,-3.94285 -0.176162,-4.72705 -0.391506,-0.60078 -3.694954,-2.68559 -4.755769,-2.72712 z"
       id="path60781-5-9-2-6-39-7-4-0-7-0-1"
       sodipodi:nodetypes="ssssssss" />
    <circle
       style="font-variation-settings:normal;fill:none;fill-opacity:1;fill-rule:evenodd;stroke:#cf9142;stroke-width:6.97875;stroke-linecap:butt;stroke-linejoin:round;stroke-miterlimit:4;stroke-dasharray:none;stroke-dashoffset:0;stroke-opacity:1;stop-color:#000000"
       id="circle152032"
       cx="105.00445"
       cy="148.50902"
       r="25.469507" />
    <path
       id="path128850-1"
       style="fill:#b67629;fill-opacity:1;stroke:none;stroke-width:0.228484px;stroke-linecap:butt;stroke-linejoin:miter;stroke-opacity:1"
       d="m 128.25648,131.27998 -5.61124,4.0811 c 2.72765,3.66142 4.33896,8.20832 4.33896,13.14711 0,12.18062 -9.79937,21.98048 -21.97996,21.98048 -2.29724,0 -4.51001,-0.34871 -6.588098,-0.99603 -0.487419,1.73636 -1.117119,3.99008 -1.87384,6.70986 2.678463,0.82177 5.519938,1.26564 8.461938,1.26564 15.95219,0 28.95943,-13.00773 28.95943,-28.95995 0,-6.4451 -2.12418,-12.40842 -5.70719,-17.22821 z" />
  </g>
</svg>
