<?xml version="1.0" encoding="UTF-8" standalone="no"?>
<!-- Created with Inkscape (http://www.inkscape.org/) -->

<svg
   xmlns:dc="http://purl.org/dc/elements/1.1/"
   xmlns:cc="http://creativecommons.org/ns#"
   xmlns:rdf="http://www.w3.org/1999/02/22-rdf-syntax-ns#"
   xmlns:svg="http://www.w3.org/2000/svg"
   xmlns="http://www.w3.org/2000/svg"
   xmlns:sodipodi="http://sodipodi.sourceforge.net/DTD/sodipodi-0.dtd"
   xmlns:inkscape="http://www.inkscape.org/namespaces/inkscape"
   width="210mm"
   height="297mm"
   viewBox="0 0 210 297"
   version="1.1"
   id="svg980"
   inkscape:version="0.92.4 (5da689c313, 2019-01-14)"
   sodipodi:docname="eye.svg">
  <defs
     id="defs974" />
  <sodipodi:namedview
     id="base"
     pagecolor="#ffffff"
     bordercolor="#666666"
     borderopacity="1.0"
     inkscape:pageopacity="0.0"
     inkscape:pageshadow="2"
     inkscape:zoom="0.49497475"
     inkscape:cx="249.23728"
     inkscape:cy="694.86797"
     inkscape:document-units="mm"
     inkscape:current-layer="layer1"
     showgrid="false"
     inkscape:window-width="1920"
     inkscape:window-height="1027"
     inkscape:window-x="-8"
     inkscape:window-y="-8"
     inkscape:window-maximized="1" />
  <metadata
     id="metadata977">
    <rdf:RDF>
      <cc:Work
         rdf:about="">
        <dc:format>image/svg+xml</dc:format>
        <dc:type
           rdf:resource="http://purl.org/dc/dcmitype/StillImage" />
        <dc:title></dc:title>
      </cc:Work>
    </rdf:RDF>
  </metadata>
  <g
     inkscape:label="Layer 1"
     inkscape:groupmode="layer"
     id="layer1">
    <g
       id="g1545"
       transform="translate(1.0000001e-6,26.125)">
      <path
         inkscape:connector-curvature="0"
         id="path839-8"
         d="m 104.99999,87.73135 a 88.534391,102.10724 0 0 0 -66.331472,34.61543 88.534391,102.10724 0 0 0 66.331472,34.67187 88.534391,102.10724 0 0 0 66.33149,-34.61543 88.534391,102.10724 0 0 0 -66.33149,-34.67187 z"
         style="opacity:1;fill:none;fill-opacity:1;stroke:#000000;stroke-width:12.78656673;stroke-linecap:butt;stroke-linejoin:round;stroke-miterlimit:4;stroke-dasharray:none;stroke-opacity:1;paint-order:normal" />
      <path
         inkscape:connector-curvature="0"
         id="path930"
         d="M 105,87.18538 A 28.839583,28.839583 0 0 0 76.16042,116.02496 28.839583,28.839583 0 0 0 105,144.86454 28.839583,28.839583 0 0 0 133.83958,116.02496 28.839583,28.839583 0 0 0 105,87.18538 Z m 7.05538,9.359121 a 9.2604161,6.6145831 58.86852 0 1 7.86722,5.212599 9.2604161,6.6145831 58.86852 0 1 -0.87437,11.3466 9.2604161,6.6145831 58.86852 0 1 -10.45,-4.50671 9.2604161,6.6145831 58.86852 0 1 0.87436,-11.346589 9.2604161,6.6145831 58.86852 0 1 2.58279,-0.7059 z"
         style="opacity:1;fill:#000000;fill-opacity:1;stroke:none;stroke-width:13;stroke-linecap:butt;stroke-linejoin:round;stroke-miterlimit:4;stroke-dasharray:none;stroke-opacity:1;paint-order:normal" />
    </g>
  </g>
</svg>
