<?xml version="1.0" encoding="UTF-8" standalone="no"?>
<!-- Created with Inkscape (http://www.inkscape.org/) -->

<svg
   xmlns:dc="http://purl.org/dc/elements/1.1/"
   xmlns:cc="http://creativecommons.org/ns#"
   xmlns:rdf="http://www.w3.org/1999/02/22-rdf-syntax-ns#"
   xmlns:svg="http://www.w3.org/2000/svg"
   xmlns="http://www.w3.org/2000/svg"
   xmlns:sodipodi="http://sodipodi.sourceforge.net/DTD/sodipodi-0.dtd"
   xmlns:inkscape="http://www.inkscape.org/namespaces/inkscape"
   width="145.44901mm"
   height="124.22449mm"
   viewBox="0 0 145.449 124.2245"
   version="1.1"
   id="svg980"
   inkscape:version="0.92.2 (5c3e80d, 2017-08-06)"
   sodipodi:docname="no-eye.svg">
  <defs
     id="defs974" />
  <sodipodi:namedview
     id="base"
     pagecolor="#ffffff"
     bordercolor="#666666"
     borderopacity="1.0"
     inkscape:pageopacity="0.0"
     inkscape:pageshadow="2"
     inkscape:zoom="0.80842811"
     inkscape:cx="608.7418"
     inkscape:cy="137.25574"
     inkscape:document-units="mm"
     inkscape:current-layer="layer1"
     showgrid="false"
     inkscape:window-width="2438"
     inkscape:window-height="2054"
     inkscape:window-x="974"
     inkscape:window-y="71"
     inkscape:window-maximized="0"
     fit-margin-top="0"
     fit-margin-left="0"
     fit-margin-right="0"
     fit-margin-bottom="0" />
  <metadata
     id="metadata977">
    <rdf:RDF>
      <cc:Work
         rdf:about="">
        <dc:format>image/svg+xml</dc:format>
        <dc:type
           rdf:resource="http://purl.org/dc/dcmitype/StillImage" />
        <dc:title />
      </cc:Work>
    </rdf:RDF>
  </metadata>
  <g
     inkscape:label="Layer 1"
     inkscape:groupmode="layer"
     id="layer1"
     transform="translate(-32.275504,-86.387756)">
    <g
       id="g1236"
       transform="translate(1.9170502e-4,-0.0042337)"
       style="fill:#a0a0a0;fill-opacity:1">
      <path
         inkscape:connector-curvature="0"
         id="path930-1-1"
         transform="matrix(0.26458333,0,0,0.26458333,32.275401,107.46307)"
         d="m 274.86523,18.099609 a 109,109 0 0 0 -109,109.000001 109,109 0 0 0 17.28321,58.68555 l 99.86914,-99.869144 a 34.999998,24.999999 58.86852 0 1 8.75195,-29.775391 34.999998,24.999999 58.86852 0 1 9.76172,-2.667969 34.999998,24.999999 58.86852 0 1 11.32227,2.607422 l 20.77539,-20.77539 A 109,109 0 0 0 274.86523,18.099609 Z M 382.19727,108.79492 256.46484,234.5293 a 109,109 0 0 0 18.40039,1.57031 109,109 0 0 0 109,-109 109,109 0 0 0 -1.66796,-18.30469 z"
         style="opacity:1;fill:#a0a0a0;fill-opacity:1;stroke:none;stroke-width:49.13385773;stroke-linecap:butt;stroke-linejoin:round;stroke-miterlimit:4;stroke-dasharray:none;stroke-opacity:1;paint-order:normal" />
      <path
         inkscape:connector-curvature="0"
         id="path839-8-3-1-9-5"
         transform="matrix(0.26458333,0,0,0.26458333,32.275401,107.46307)"
         d="M 274.82812,0 C 170.88414,0.14200079 72.479041,51.928855 4.9628906,140.32812 a 24.166007,24.166007 0 0 0 -0.015625,29.32227 C 33.887387,207.59822 68.521867,238.80242 106.83984,262.09375 l 35.47461,-35.47461 C 110.56147,208.89868 81.270068,184.80147 55.816406,155.01172 114.2058,86.775977 192.73325,48.453379 274.85156,48.328125 c 14.22561,0.02932 28.34388,1.20788 42.26758,3.486328 L 357.68555,11.248047 C 330.83792,3.9079148 303.07902,0.054115 274.91016,0 a 24.166007,24.166007 0 0 0 -0.0801,0 z M 442.88281,48.109375 407.4082,83.583984 c 31.75785,17.720896 61.05383,41.818916 86.50977,71.611326 -58.38962,68.23688 -136.924,106.55838 -219.04297,106.6836 -14.22836,-0.0293 -28.34944,-1.20701 -42.27539,-3.48633 l -40.55859,40.56054 c 26.84703,7.33903 54.60522,11.19394 82.77343,11.24805 a 24.166007,24.166007 0 0 0 0.082,0 C 378.84106,310.05982 477.25293,258.27865 544.7695,169.87891 a 24.166007,24.166007 0 0 0 0.008,-29.32032 C 515.83624,102.61001 481.20183,71.402399 442.88281,48.109375 Z"
         style="color:#000000;font-style:normal;font-variant:normal;font-weight:normal;font-stretch:normal;font-size:medium;line-height:normal;font-family:sans-serif;font-variant-ligatures:normal;font-variant-position:normal;font-variant-caps:normal;font-variant-numeric:normal;font-variant-alternates:normal;font-feature-settings:normal;text-indent:0;text-align:start;text-decoration:none;text-decoration-line:none;text-decoration-style:solid;text-decoration-color:#000000;letter-spacing:normal;word-spacing:normal;text-transform:none;writing-mode:lr-tb;direction:ltr;text-orientation:mixed;dominant-baseline:auto;baseline-shift:baseline;text-anchor:start;white-space:normal;shape-padding:0;clip-rule:nonzero;display:inline;overflow:visible;visibility:visible;opacity:1;isolation:auto;mix-blend-mode:normal;color-interpolation:sRGB;color-interpolation-filters:linearRGB;solid-color:#000000;solid-opacity:1;vector-effect:none;fill:#a0a0a0;fill-opacity:1;fill-rule:nonzero;stroke:none;stroke-width:48.32718277;stroke-linecap:butt;stroke-linejoin:round;stroke-miterlimit:4;stroke-dasharray:none;stroke-dashoffset:0;stroke-opacity:1;paint-order:normal;color-rendering:auto;image-rendering:auto;shape-rendering:auto;text-rendering:auto;enable-background:accumulate" />
      <path
         inkscape:connector-curvature="0"
         id="path819-1-9-2"
         d="m 158.30203,86.395761 a 8.5480255,8.5480255 0 0 0 -5.87618,2.58567 L 45.445237,195.96204 a 8.5480255,8.5480255 0 1 0 12.08808,12.0881 L 164.51394,101.06951 a 8.5480255,8.5480255 0 0 0 -6.21191,-14.673749 z"
         style="color:#000000;font-style:normal;font-variant:normal;font-weight:normal;font-stretch:normal;font-size:medium;line-height:normal;font-family:sans-serif;font-variant-ligatures:normal;font-variant-position:normal;font-variant-caps:normal;font-variant-numeric:normal;font-variant-alternates:normal;font-feature-settings:normal;text-indent:0;text-align:start;text-decoration:none;text-decoration-line:none;text-decoration-style:solid;text-decoration-color:#000000;letter-spacing:normal;word-spacing:normal;text-transform:none;writing-mode:lr-tb;direction:ltr;text-orientation:mixed;dominant-baseline:auto;baseline-shift:baseline;text-anchor:start;white-space:normal;shape-padding:0;clip-rule:nonzero;display:inline;overflow:visible;visibility:visible;opacity:1;isolation:auto;mix-blend-mode:normal;color-interpolation:sRGB;color-interpolation-filters:linearRGB;solid-color:#000000;solid-opacity:1;vector-effect:none;fill:#a0a0a0;fill-opacity:1;fill-rule:nonzero;stroke:none;stroke-width:2.5;stroke-linecap:round;stroke-linejoin:round;stroke-miterlimit:4;stroke-dasharray:none;stroke-dashoffset:0;stroke-opacity:1;color-rendering:auto;image-rendering:auto;shape-rendering:auto;text-rendering:auto;enable-background:accumulate" />
    </g>
  </g>
</svg>
